:SAMPLES-PER-SECOND 24
:FULLY-SPECIFIED
:DEGREES
266
root  6.83105 40.9041 39.1042 -58.363 -42.444 59.4585
RightUpLeg  -5.83568 12.0035 -30.8702
RightLeg  30.9706 -10.7693 -7.13177
RightFoot  -8.34401 0.174949 -8.81456
RightToes  -2.08645e-008 3.77894e-005 6.81332e-007
Spine  19.9726 0.562208 -2.32939
Spine1  3.86345 2.5939 -15.596
HEad  -22.4275 30.8346 -18.6516
LeftShoulder1  6.52961 -12.3234 -35.2326
LeftArm  6.08496 13.6482 -27.4785
LeftForeArm  177.821 -59.1496 -164.052
LeftHand  0.505152 -4.75158 -5.48347
RightShoulder  3.49439 6.36133 29.4995
RightArm  12.0718 3.49787 16.5353
RightForeArm  28.1062 59.8844 16.9701
RightHand  -0.482354 8.47763 -4.39384
LeftUpLeg  -38.4487 20.6919 28.8528
LeftLeg  3.88304 9.88303 4.93348
LeftFoot  1.994 1.67476 -14.4224
LeftToes  1.24767e-006 1.47042e-008 1.32732e-009
267
root  6.69545 40.8412 39.0729 -56.8945 -45.2706 58.7649
RightUpLeg  -5.99926 12.1943 -27.8041
RightLeg  28.852 -11.5362 -7.02721
RightFoot  -8.97341 0.1505 -10.1693
RightToes  -2.08645e-008 3.77894e-005 6.81332e-007
Spine  18.2355 0.217732 -2.53588
Spine1  4.00029 1.78729 -12.5263
HEad  -25.8931 33.1636 -19.6563
LeftShoulder1  6.74988 -12.5579 -35.9842
LeftArm  6.32064 14.2998 -27.4368
LeftForeArm  175.823 -60.2731 -163.169
LeftHand  0.453157 -4.65062 -4.94526
RightShoulder  3.65701 6.47479 30.7483
RightArm  10.5506 -5.89146 14.5678
RightForeArm  27.5252 59.1195 16.4504
RightHand  -0.763369 7.28983 -7.32598
LeftUpLeg  -32.7867 18.9669 25.9601
LeftLeg  2.81805 9.87055 3.16588
LeftFoot  3.17306 2.45445 -19.2689
LeftToes  1.24767e-006 1.47042e-008 1.32732e-009
268
root  6.60544 40.743 39.0426 -54.8145 -47.9234 57.5551
RightUpLeg  -6.74266 12.0006 -24.8489
RightLeg  27.5618 -11.9764 -6.92542
RightFoot  -9.46523 0.119048 -11.1081
RightToes  -2.08645e-008 3.77894e-005 6.81332e-007
Spine  16.1364 -0.826088 -2.00247
Spine1  4.54983 0.730133 -10.679
HEad  -29.1916 35.5463 -21.3548
LeftShoulder1  7.12021 -12.9012 -37.321
LeftArm  5.82459 14.3535 -27.0057
LeftForeArm  175.247 -61.1924 -162.5
LeftHand  0.392683 -4.45193 -4.3463
RightShoulder  3.75081 6.53959 31.4547
RightArm  9.42798 -14.7452 12.9095
RightForeArm  28.636 59.9888 16.9962
RightHand  -0.433993 8.81857 -3.90974
LeftUpLeg  -27.7407 15.8641 22.6008
LeftLeg  5.82513 9.07031 2.1241
LeftFoot  0.875387 2.39527 -22.1675
LeftToes  1.24767e-006 1.47042e-008 1.32732e-009
269
root  6.57697 40.6001 39.0628 -51.7887 -50.5339 55.2983
RightUpLeg  -8.08326 10.4479 -21.8406
RightLeg  27.3108 -11.4012 -6.54535
RightFoot  -9.88424 0.0856956 -11.9098
RightToes  -2.08645e-008 3.77894e-005 6.81332e-007
Spine  14.0717 -2.20881 -0.9012
Spine1  4.86676 -0.678745 -8.92398
HEad  -32.1398 38.0698 -23.1566
LeftShoulder1  7.50103 -13.2601 -38.6129
LeftArm  5.0061 14.0134 -26.9634
LeftForeArm  174.78 -62.3611 -161.616
LeftHand  0.338975 -4.31674 -3.77435
RightShoulder  3.71903 6.49143 31.3149
RightArm  8.73925 -22.6216 11.8199
RightForeArm  29.9905 61.988 18.5185
RightHand  -0.461733 8.98155 -4.10642
LeftUpLeg  -24.3526 15.7987 16.8332
LeftLeg  13.0955 7.63597 2.13423
LeftFoot  -2.04773 1.92601 -23.2651
LeftToes  1.24767e-006 1.47042e-008 1.32732e-009
270
root  6.56755 40.4115 39.0454 -48.101 -53.6454 52.0482
RightUpLeg  -9.34088 8.33818 -18.0515
RightLeg  27.0161 -9.96912 -5.70232
RightFoot  -10.3441 0.0445636 -13.0204
RightToes  -2.08645e-008 3.77894e-005 6.81332e-007
Spine  11.9915 -3.43393 0.557175
Spine1  5.26156 -2.01162 -7.09391
HEad  -34.5945 40.843 -23.9818
LeftShoulder1  7.68535 -13.4473 -39.179
LeftArm  4.5089 13.21 -27.9063
LeftForeArm  172.329 -64.2114 -159.896
LeftHand  0.256987 -4.22358 -2.82776
RightShoulder  3.72236 6.51294 31.2681
RightArm  8.79293 -28.7929 10.9878
RightForeArm  31.6386 64.6142 20.942
RightHand  -0.490973 8.52266 -4.4688
LeftUpLeg  -21.1619 18.9762 10.9182
LeftLeg  21.9686 5.728 2.87973
LeftFoot  -2.7601 1.9198 -25.0065
LeftToes  1.24767e-006 1.47042e-008 1.32732e-009
271
root  6.53137 40.1765 38.8893 -43.63 -56.6075 47.8826
RightUpLeg  -9.87321 6.62239 -13.7972
RightLeg  25.6146 -8.92801 -4.85717
RightFoot  -11.0037 -0.0311982 -14.3947
RightToes  -2.08645e-008 3.77894e-005 6.81332e-007
Spine  9.61514 -4.2034 0.741434
Spine1  6.10016 -3.27107 -4.58522
HEad  -35.6915 43.9312 -23.7669
LeftShoulder1  7.74157 -13.4947 -39.3732
LeftArm  4.82051 11.6507 -28.9327
LeftForeArm  170.409 -65.9615 -158.101
LeftHand  0.190258 -4.20122 -2.02782
RightShoulder  3.81302 6.64755 31.6711
RightArm  9.3239 -32.9916 10.4604
RightForeArm  34.8144 67.813 24.6483
RightHand  -0.475268 8.10684 -4.45279
LeftUpLeg  -17.4136 22.7371 6.13049
LeftLeg  30.9174 4.18876 3.05377
LeftFoot  -3.08738 1.8687 -25.2705
LeftToes  1.24767e-006 1.47042e-008 1.32732e-009
272
root  6.4755 39.7851 38.6662 -37.4196 -58.5058 41.9369
RightUpLeg  -10.4499 4.77113 -9.39736
RightLeg  24.7813 -9.05701 -4.75567
RightFoot  -12.3957 -0.230682 -15.8594
RightToes  -2.08645e-008 3.77894e-005 6.81332e-007
Spine  7.23862 -4.59107 -0.939573
Spine1  6.52129 -4.86559 0.0265096
HEad  -35.2663 46.9111 -23.0044
LeftShoulder1  7.73652 -13.4668 -39.4166
LeftArm  5.95266 10.0788 -29.6446
LeftForeArm  170.747 -66.9515 -157.139
LeftHand  0.176356 -4.24645 -1.84772
RightShoulder  3.89293 6.72463 32.1725
RightArm  9.33313 -36.125 10.8443
RightForeArm  40.5158 71.3088 30.1452
RightHand  -0.484178 8.1121 -4.52826
LeftUpLeg  -13.7609 27.3612 2.09611
LeftLeg  39.4102 3.94996 3.8765
LeftFoot  -2.61036 1.9766 -25.3117
LeftToes  1.24767e-006 1.47042e-008 1.32732e-009
273
root  6.43522 39.2761 38.3568 -27.7919 -58.6674 32.4493
RightUpLeg  -11.7314 1.28671 -4.22801
RightLeg  25.1247 -9.40673 -4.99819
RightFoot  -14.0537 -0.509455 -17.366
RightToes  -2.08645e-008 3.77894e-005 6.81332e-007
Spine  5.12558 -5.15171 -2.65366
Spine1  6.26066 -6.84681 5.65982
HEad  -35.097 48.5811 -22.4602
LeftShoulder1  7.65337 -13.3729 -39.1894
LeftArm  7.39664 8.75386 -30.3827
LeftForeArm  171.053 -67.5103 -156.574
LeftHand  0.204827 -4.35389 -2.15933
RightShoulder  3.9685 6.72802 32.9009
RightArm  7.72227 -38.831 13.0323
RightForeArm  48.246 74.4465 37.5245
RightHand  -0.338261 8.4193 -3.21775
LeftUpLeg  -10.3958 30.972 -0.122038
LeftLeg  46.7075 5.02377 6.12559
LeftFoot  -2.23137 2.04045 -25.0701
LeftToes  1.24767e-006 1.47042e-008 1.32732e-009
274
root  6.43108 38.8045 37.9117 -15.6128 -55.4397 20.3776
RightUpLeg  -13.6083 -4.96522 1.70833
RightLeg  25.1872 -9.3438 -4.98047
RightFoot  -15.1049 -0.71908 -18.6063
RightToes  -2.08645e-008 3.77894e-005 6.81332e-007
Spine  2.96701 -6.33115 -4.20355
Spine1  6.14104 -9.50822 11.8509
HEad  -36.3106 48.2796 -22.7371
LeftShoulder1  7.67698 -13.3895 -39.2805
LeftArm  8.49706 7.00953 -31.041
LeftForeArm  170.762 -68.2121 -155.746
LeftHand  0.240175 -4.76354 -2.44708
RightShoulder  4.08682 6.74429 33.9901
RightArm  3.97805 -40.0352 17.8206
RightForeArm  56.1073 76.5169 44.7989
RightHand  -0.270191 8.57209 -2.62573
LeftUpLeg  -7.67475 31.589 -0.547692
LeftLeg  52.4199 5.65122 8.30738
LeftFoot  -0.944099 2.19545 -23.7622
LeftToes  1.24767e-006 1.47042e-008 1.32732e-009
275
root  6.41839 38.4802 37.2198 -5.71838 -47.6224 10.6846
RightUpLeg  -15.9604 -13.451 7.58137
RightLeg  23.8737 -9.96873 -5.00863
RightFoot  -15.0785 -0.748529 -19.6254
RightToes  -2.08645e-008 3.77894e-005 6.81332e-007
Spine  1.29535 -8.04684 -8.19735
Spine1  5.89201 -12.9584 19.8531
HEad  -37.1629 46.327 -22.4971
LeftShoulder1  7.87319 -13.5824 -39.8831
LeftArm  9.63962 5.32592 -31.9937
LeftForeArm  171.087 -69.4205 -154.301
LeftHand  0.181118 -5.24006 -1.66668
RightShoulder  4.20232 6.76446 35.0259
RightArm  -1.3389 -39.1653 24.3869
RightForeArm  62.2927 77.5774 49.5868
RightHand  -0.267347 8.66397 -2.58929
LeftUpLeg  -5.90157 29.3587 0.289737
LeftLeg  56.642 5.62277 9.6445
LeftFoot  2.05287 2.65312 -22.4459
LeftToes  1.24767e-006 1.47042e-008 1.32732e-009
276
root  6.30127 38.4219 36.2755 -0.179688 -36.7923 5.60645
RightUpLeg  -18.3227 -21.6563 12.566
RightLeg  20.3172 -12.0078 -4.86046
RightFoot  -13.5597 -0.500197 -20.9502
RightToes  -2.08645e-008 3.77894e-005 6.81332e-007
Spine  0.911584 -9.587 -14.1459
Spine1  4.42594 -15.7368 27.5698
HEad  -36.3208 42.7391 -19.9939
LeftShoulder1  7.92691 -13.6668 -39.9643
LeftArm  12.2245 4.87196 -33.7174
LeftForeArm  170.484 -70.7657 -152.365
LeftHand  0.0703014 -5.17992 -0.460311
RightShoulder  4.25652 6.7658 35.5402
RightArm  -6.39692 -37.6181 30.5894
RightForeArm  67.616 78.3121 53.6749
RightHand  -0.106573 8.662 -1.26912
LeftUpLeg  -4.69477 26.5697 2.16827
LeftLeg  59.4361 5.59901 10.709
LeftFoot  6.11741 3.20447 -20.9231
LeftToes  1.24767e-006 1.47042e-008 1.32732e-009
